<?xml version="1.0" standalone="no"?>
<!DOCTYPE svg PUBLIC "-//W3C//DTD SVG 1.1//EN" "http://www.w3.org/Graphics/SVG/1.1/DTD/svg11.dtd">
<svg xmlns="http://www.w3.org/2000/svg">
<metadata>Copyright (C) 2021 by original authors @ fontello.com</metadata>
<defs>
<font id="fontello" horiz-adv-x="1000" >
<font-face font-family="fontello" font-weight="400" font-stretch="normal" units-per-em="1000" ascent="850" descent="-150" />
<missing-glyph horiz-adv-x="1000" />
<glyph glyph-name="top" unicode="&#xe800;" d="M564 280q16-16 16-41t-16-41q-38-38-78 0l-196 188-196-188q-40-38-78 0-16 16-16 41t16 41l234 224q16 16 40 16t40-16z" horiz-adv-x="580" />

<glyph glyph-name="facebook" unicode="&#xe801;" d="M313 454l156 0 0-156-156 0 0-364-157 0 0 364-156 0 0 156 156 0 0 66q0 50 16 102t43 81q58 64 145 64l109 0 0-157-109 0q-20 0-34-13t-13-33l0-110z" horiz-adv-x="469" />

<glyph glyph-name="idea" unicode="&#xe802;" d="M500 850c-184 0-333-149-333-333 0-89 55-163 104-229 8-11 17-22 25-33 15-22 25-45 31-73 11-48 52-82 99-82h148c47 0 88 34 99 82 6 28 16 51 32 73 7 11 16 22 24 33 49 66 104 140 104 229 0 184-149 333-333 333z m196-537c-9-12-17-23-25-34-19-26-32-55-39-88-6-29-30-49-58-49h-148c-28 0-52 20-58 49-7 33-20 62-38 88-9 11-17 22-26 34-47 63-96 129-96 204 0 161 131 291 292 291s292-130 292-291c0-75-49-141-96-204z m-92-255h-208c-12 0-21-9-21-20 0-12 9-21 21-21h208c12 0 21 9 21 21 0 11-9 20-21 20z m0-83h-208c-12 0-21-9-21-21s9-21 21-21h208c12 0 21 10 21 21s-9 21-21 21z m-41-83h-125c-12 0-21-10-21-21 0-12 9-21 21-21h125c11 0 20 9 20 21 0 11-9 21-20 21z" horiz-adv-x="1000" />

<glyph glyph-name="layers" unicode="&#xe803;" d="M1000 350c0 24-13 46-34 58l-55 33c21 13 40 24 55 33 21 13 34 34 34 58 0 24-13 45-34 58-69 41-305 182-422 248-27 16-59 16-88 0 0 0-317-186-422-248-21-13-34-34-34-58 0-24 13-45 34-58 15-9 34-20 56-33l-56-33c-21-12-34-34-34-58 0-24 13-45 34-58 15-9 34-20 56-33l-56-33c-21-12-34-34-34-58 0-23 13-45 34-58 90-53 311-185 422-248 13-8 29-12 44-12s31 4 44 12c111 63 332 195 422 248 21 13 34 35 34 58 0 24-13 46-34 58l-55 33c21 13 40 24 55 33 21 13 34 34 34 58z m-943 163c-3 2-11 8-11 19 0 11 8 17 11 19 105 62 421 248 421 248 15 8 30 7 44 0 116-67 352-207 421-248 4-2 12-8 12-19s-8-17-12-19c-90-54-311-185-421-248-14-8-30-8-44 0-110 63-331 194-421 248z m886-326c4-2 12-8 12-19 0-11-8-17-12-19-90-53-311-185-421-248-14-8-30-8-44 0-110 63-331 195-421 248-3 2-11 8-11 19 0 11 8 17 11 19l77 46c104-62 242-143 322-189 13-8 29-12 44-12s31 4 44 12c80 46 218 127 322 189l77-46z m0 144c-90-53-311-185-421-248-14-8-30-8-44 0-110 63-331 195-421 248-3 2-11 8-11 19 0 11 8 17 11 19l77 45c104-61 242-143 322-188 13-8 29-12 44-12s31 4 44 12c80 45 218 127 322 188l77-45c4-2 12-8 12-19 0-11-8-17-12-19z" horiz-adv-x="1000" />

<glyph glyph-name="youtube" unicode="&#xe804;" d="M654 516l-221 121c-13 7-28 7-40-1-13-7-20-20-20-35v-239c0-15 7-28 20-35 6-4 13-6 21-6 6 0 13 2 19 5l221 119c13 7 21 20 21 35 0 15-8 29-21 36z m-222-124v179l165-90z m0 0m561 279l0 1c-1 8-10 79-44 116-41 43-86 48-108 50-2 1-4 1-5 1l-2 0c-132 10-332 11-334 11l0 0 0 0c-2 0-202-1-335-11l-2 0c-1 0-3 0-5-1-21-2-66-7-107-52-33-36-42-106-43-114l-1-1c0-3-7-83-7-163v-75c0-80 7-159 7-163l0 0c1-8 10-79 44-115 38-41 86-47 112-50 4 0 7-1 10-1l2 0c76-8 316-11 326-11l0 0 0 0c2 0 202 1 334 11l2 0c2 0 4 0 6 0 21 3 66 7 106 51 33 36 43 106 44 114l0 1c0 4 7 83 7 163v75c0 80-7 160-7 163z m-52-238c0-74-6-150-7-157-2-19-12-64-28-81-25-28-51-30-70-32-2-1-4-1-6-1-128-9-320-11-329-11-10 0-245 4-319 11-4 0-8 1-13 1-21 3-51 6-75 32l0 0c-16 17-26 58-28 81-1 5-7 82-7 157v75c0 74 6 150 7 158 3 22 13 64 28 81 26 28 53 31 71 33 2 0 3 1 5 1 130 9 323 10 330 10 7 0 200-1 329-10 2 0 3-1 5-1 19-2 46-5 72-32l0-1c16-16 26-58 28-81 1-5 7-83 7-158z m0 0" horiz-adv-x="1000" />

<glyph glyph-name="database" unicode="&#xe809;" d="M952 695c-21 78-178 155-452 155-274 0-431-77-452-155-1-2-2-5-2-9v-9-209-9-9-200-9-9-218c0-3 0-6 2-9 21-89 213-155 452-155 238 0 430 66 452 155 2 2 3 5 3 9v218 9 9 200 9 9 209 9c0 4-2 7-3 9z m-35-463c-1-2-1-4-2-6-1-2-2-4-3-6-1-2-2-4-4-7-1-1-3-3-4-5-2-2-4-4-7-7-1-1-3-3-4-4-3-3-7-5-10-8-1-1-3-2-5-3-4-3-8-6-13-8-1-1-2-2-4-3-5-3-11-6-17-9-1 0-1 0-2-1-7-3-14-6-22-9 0 0 0 0 0 0-42-17-95-31-156-40 0 0-1 0-1 0-12-2-24-3-37-5-2 0-4 0-6 0-11-1-22-3-34-3-5-1-10-1-16-1-8-1-17-1-26-2-14 0-29 0-44 0s-30 0-44 0c-9 1-18 1-26 2-5 0-11 0-16 1-12 1-23 2-34 3-2 0-4 0-6 0-13 2-25 3-37 5 0 0-1 0-1 0-61 9-114 23-155 40-1 0-1 0-1 0-8 3-15 6-22 9 0 1-1 1-2 1-6 3-12 6-17 9-2 1-3 2-4 3-5 2-9 5-13 8-2 1-3 2-5 3-3 3-7 5-9 8-2 1-4 3-5 4-3 3-5 5-7 7-1 2-3 4-4 5-1 3-3 5-4 7-1 2-2 4-3 6 0 2-1 4-2 6 0 3-1 6-1 9 0 2 0 4 0 6 1 3 1 6 0 8v135c0 0 1-1 2-1 4-4 8-7 12-11 69-51 206-92 404-92 198 0 334 40 403 92 6 4 11 8 15 12l0 0v-135c-1-2-1-5 0-8 0-2 0-4 0-6 0-3-1-6-1-9z m1 376v-135c-1-2-1-5 0-8 0-2 0-4 0-6 0-3-1-6-1-9-1-2-1-4-2-6-1-2-2-4-3-6-1-2-2-4-4-6-1-2-3-4-4-5-2-3-4-5-7-8-1-1-3-2-4-4-3-2-7-5-10-8-1-1-3-2-5-3-4-3-8-6-13-8-1-1-2-2-4-2-5-4-11-7-17-9-1-1-1-1-2-2-7-3-14-6-22-9 0 0 0 0 0 0-42-17-95-31-156-40 0 0-1 0-1 0-12-2-24-3-37-5-2 0-4 0-6 0-11-1-22-2-34-3-5-1-10-1-16-1-8-1-17-1-26-1-14-1-29-1-44-1s-30 0-44 1c-9 0-18 0-26 1-5 0-11 0-16 1-12 1-23 2-34 3-2 0-4 0-6 0-13 2-25 3-37 5 0 0-1 0-1 0-61 9-114 23-155 40-1 0-1 0-1 0-8 3-15 6-22 9 0 1-1 1-2 2-6 3-12 6-17 9-2 0-3 1-4 2-5 3-9 5-13 8-2 1-3 2-5 3-3 3-7 6-9 8-2 2-4 3-5 5-3 2-5 4-7 7-1 1-3 3-4 5-1 2-3 4-4 6-1 2-2 4-3 6 0 2-1 4-2 6 0 3-1 6-1 9 0 2 0 4 0 6 1 3 1 6 0 8v135c2-2 5-4 7-6 1-1 2-2 4-3 5-4 11-8 18-12 1-1 2-2 4-3 5-3 11-7 17-10 2-1 4-2 6-3 7-4 14-7 21-10 1-1 3-1 4-2 8-3 17-7 27-10 2-1 5-2 8-3 7-2 15-5 23-7 3-1 6-2 9-3 10-3 21-5 33-8 1 0 3-1 5-1 10-2 20-4 31-6 4-1 8-1 11-2 11-2 21-3 32-5 3 0 6-1 9-1 13-1 27-3 42-4 3 0 7-1 10-1 12-1 24-1 36-2 4 0 8 0 13 0 16-1 32-1 48-1s33 0 48 1c5 0 9 0 13 0 12 1 24 1 36 2 3 0 7 1 11 1 14 1 28 3 42 4 2 0 5 1 8 1 11 2 21 3 32 5 3 1 7 1 11 2 11 2 21 4 31 6 2 0 4 1 5 1 12 3 23 5 33 8 3 1 6 2 9 3 8 2 16 5 23 7 3 1 6 2 8 3 10 3 19 7 27 10 2 1 3 1 4 2 7 3 14 6 21 10 2 1 4 2 6 3 6 3 12 7 17 10 2 1 3 2 5 3 6 4 12 8 17 12 2 1 3 2 4 3 3 2 5 4 7 6z m-418 206c247 0 418-72 418-137s-171-136-418-136-418 72-418 136 172 137 418 137z m418-795c0-1 0-2 0-2-11-63-181-131-418-131s-407 68-418 131c0 0 0 1 0 2v153c0 0 1-1 2-1 4-4 8-7 12-11 69-52 206-92 404-92 198 0 334 40 403 92 6 4 11 8 15 12l0 0v-153z" horiz-adv-x="1000" />

<glyph glyph-name="graphic" unicode="&#xe80a;" d="M950 561c-9 5-20 9-30 10-52 8-100-28-107-79-4-24 2-49 16-68l-100-91c-35 38-95 41-133 6-9-7-16-16-21-26l-116 93c3 52-37 96-89 99-52 2-96-38-99-90 0-6 0-12 1-18l-109-111c-35 38-95 40-133 5-38-36-40-95-5-133 36-38 95-40 133-5 26 24 36 60 27 94l105 107c31-41 90-50 132-19 9 7 17 16 24 27l119-97c2-45 35-82 80-89 5 0 9-1 14-1 52 0 94 43 94 95 0 8-1 16-3 24l111 101c46-24 103-7 128 39 24 46 7 103-39 127z m-805-346c-4-28-30-48-58-44-28 4-48 30-44 58 5 28 31 48 59 44 0 0 0 0 0 0 28-5 47-31 43-58z m271 188l0 0c-4-28-30-47-58-43s-47 30-43 58c3 25 25 44 50 44 3 0 5 0 8-1 28-4 47-30 43-58z m293-141c-4-28-30-47-58-43-28 4-47 30-43 58 4 25 25 44 51 44 2 0 5 0 7-1 28-4 48-30 43-58 0 0 0 0 0 0h0z m247 209c-4-28-30-48-58-44-28 5-47 31-43 59 4 28 30 47 58 43 0 0 0 0 0 0 28-4 48-30 43-58h0z" horiz-adv-x="1000" />

<glyph glyph-name="pencil" unicode="&#xe80b;" d="M792 817c-22 21-50 33-80 33-31 0-59-12-81-33l-574-574c-13-13-21-29-25-47l-32-148c-1-6 1-13 6-17 3-4 8-6 14-6 1 0 2 0 4 0l147 32c18 3 34 12 47 25l574 574c44 44 44 116 0 161z m-210-104l106-106-21-21-106 106z m-97-98l39-39-364-363c-13-1-26 4-35 14-5 5-9 11-11 17z m-431-502l34-34-43-9z m109-18l-29-6-70 70 6 29c2 10 7 20 15 27 3-6 7-11 12-16 14-14 33-23 52-25 2-19 11-38 26-52 4-5 10-9 15-13-7-7-17-12-27-14z m56 43c-6 3-12 7-17 11-9 10-14 23-14 36l363 364 39-39z m399 399l-106 106 22 21 105-106z m146 147l-49-49-105 105 49 49c14 14 33 22 53 22s38-8 52-22c29-29 29-76 0-105z m217-482c-11 0-20-8-20-19v-283c0-6-5-11-11-11h-758c-6 0-9 5-10 7s-2 7 2 12l69 69 28-28c4-4 9-6 14-6s10 2 14 6c8 8 8 20 0 28l-28 28 91 90 28-28c4-3 9-5 14-5s10 2 13 5c8 8 8 20 0 28l-27 28 90 91 28-28c4-4 9-6 14-6 5 0 10 2 14 6 7 8 7 20 0 28l-28 27 91 91 28-28c3-4 8-5 13-5 5 0 10 1 14 5 8 8 8 20 0 28l-28 28 91 91 28-28c4-4 9-6 14-6s10 2 14 6c7 7 7 20 0 27l-28 28 91 91 27-28c4-4 9-6 14-6s10 2 14 6c8 8 8 20 0 28l-28 28 69 69c5 4 10 3 12 2 2-1 7-3 7-10v-260c0-11 9-20 20-20 10 0 19 9 19 20v260c0 20-12 38-31 46-19 8-40 4-54-11l-758-758c-15-14-19-35-11-54s26-31 46-31h758c28 0 50 22 50 50v283c0 11-9 19-19 19z m0 107h0c-11 0-20-9-20-20s9-19 20-19 19 9 19 19-9 20-19 20z m-151 106l-395-395c-6-5-8-14-5-21 4-8 11-12 19-12l395 0c5 0 10 2 14 5 3 4 5 9 5 14v396c0 7-4 15-12 18s-15 1-21-5z m-6-389l-328 0 328 328z" horiz-adv-x="1000" />

<glyph glyph-name="design" unicode="&#xe80c;" d="M245 122a12 12 0 1 1-16-17l29-28a12 12 0 1 1 16 16z m6 256a12 12 0 0 1 17 17l-123 123 40 40 34-34 151-152-240-240a31 31 0 0 1 0-45l110-109a31 31 0 0 1 44 0l240 240 174-173a12 12 0 0 1 1-1c1-1 1-1 1-1a12 12 0 0 1 2-1c0 0 0 0 0 0a12 12 0 0 1 1 0l126-31a12 12 0 0 1 14 14l-31 125a12 12 0 0 1-1 2c0 0 0 0 0 0a12 12 0 0 1-1 2c0 0 0 0 0 0a12 12 0 0 1-1 2l-174 173 239 239a31 31 0 0 1 0 45l-109 109a31 31 0 0 1-44 0l-63-63-177-176-193 194a12 12 0 0 1-17 0l-5-6-16 16a58 58 0 0 1-42 18h0a59 59 0 0 1-42-101l17-16-63-62a12 12 0 0 1 0-17z m533-230l-78-78-463 463 78 77z m-517-154a8 8 0 0 0-11 0l-110 110a8 8 0 0 0 0 11l164 164 53-52a12 12 0 1 1 16 16l-52 53 60 60 121-121z m462 66l65 65 21-87z m-182 456l53-52a12 12 0 1 1 16 16l-52 53 102 102 31-31a12 12 0 1 1 17 16l-31 31 54 55a8 8 0 0 0 11 0l110-110a8 8 0 0 0 0-11l-239-239-121 121z m-242 111l-78-78-25 25 78 78z m-122-6a35 35 0 0 0 25 60h0a35 35 0 0 0 25-10l16-17-47-47-3-2z" horiz-adv-x="1000" />

<glyph glyph-name="computer" unicode="&#xe80d;" d="M935 763h-870c-36 0-65-29-65-65v-522c0-36 29-65 65-65h413v-131h-195c-12 0-22-9-22-21s10-22 22-22h434c12 0 22 10 22 22s-10 21-22 21h-195v131h413c36 0 65 29 65 65v522c0 36-29 65-65 65z m22-587c0-12-10-22-22-22h-870c-12 0-21 10-21 22v65h913v-65z m0 109h-913v413c0 12 9 22 21 22h870c12 0 22-10 22-22v-413z" horiz-adv-x="1000" />

<glyph glyph-name="settings" unicode="&#xe80f;" d="M935 459h-82c-6 22-15 44-26 64l57 58c13 12 19 28 19 46 0 17-6 34-19 46l-61 61c-25 25-68 25-92 0l-58-57c-20 11-42 20-64 26v82c0 36-30 65-65 65h-87c-36 0-66-29-66-65v-82c-22-6-43-15-64-26l-57 57c-26 26-67 26-93 0l-61-61c-26-26-26-67 0-92l57-58c-11-20-20-42-26-64h-82c-36 0-65-30-65-65v-87c0-36 29-66 65-66h82c7-22 15-43 26-64l-57-57c-26-26-26-67 0-93l61-61c26-26 67-26 93 0l57 57c21-11 42-20 64-26v-82c0-36 30-65 66-65h87c36 0 65 29 65 65v82c22 7 44 15 64 26l58-57c24-25 67-25 92 0l61 61c13 13 19 29 19 46 0 18-6 34-19 47l-57 57c11 21 20 42 26 64h82c36 0 65 30 65 66v87c0 35-29 65-65 65z m22-152c0-12-10-22-22-22h-98c-10 0-19-7-21-16-8-30-19-58-35-85-5-8-4-19 3-26l70-69c4-4 6-10 6-16 0-5-2-11-6-15l-62-62c-8-8-23-8-31 0l-69 70c-7 7-18 8-26 3-26-15-55-27-84-35-10-2-17-11-17-21v-98c0-12-9-22-21-22h-87c-12 0-22 10-22 22v98c0 10-7 19-16 21-30 8-58 20-85 35-3 2-7 3-11 3-5 0-11-2-15-6l-69-70c-9-8-22-8-31 0l-62 62c-8 9-8 22 0 31l70 69c7 7 8 18 3 26-15 27-27 55-35 85-2 9-11 16-21 16h-98c-12 0-21 10-21 22v87c0 12 9 21 21 21h98c10 0 19 7 21 17 8 29 20 58 35 84 5 8 4 19-3 26l-69 69c-9 9-9 23 0 31l61 62c9 8 22 8 31 0l69-70c7-7 18-8 26-3 27 16 55 27 85 35 9 2 16 11 16 21v98c0 12 10 22 22 22h87c12 0 21-10 21-22v-98c0-10 7-19 17-21 29-8 58-19 84-35 8-5 19-4 26 3l69 70c8 8 23 8 31 0l62-62c4-4 6-9 6-15s-2-12-6-16l-70-69c-7-7-8-18-3-26 16-26 27-55 35-84 2-10 11-17 21-17h98c12 0 22-9 22-21v-87z m-457 239c-108 0-196-88-196-196s88-196 196-196c108 0 196 88 196 196s-88 196-196 196z m0-348c-84 0-152 68-152 152s68 152 152 152c84 0 152-68 152-152s-68-152-152-152z" horiz-adv-x="1000" />

<glyph glyph-name="window" unicode="&#xe811;" d="M618 298h-236c-9 0-16 7-16 17 0 9 7 16 16 16h236c9 0 16-7 16-16 0-10-7-17-16-17z m0 0m-118-118c-9 0-16 8-16 17v235c0 10 7 17 16 17s17-7 17-17v-235c0-9-8-17-17-17z m0 0m389-212h-778c-61 0-111 49-111 111v660c0 61 50 111 111 111h778c61 0 111-50 111-111v-660c0-62-50-111-111-111z m-778 849c-43 0-78-35-78-78v-660c0-43 35-78 78-78h778c43 0 78 35 78 78v660c0 43-35 78-78 78z m0 0m873-231h-967c-10 0-17 7-17 16 0 9 7 17 17 17h967c9 0 16-8 16-17 0-9-7-16-16-16z m0 0m-702 79c-29 0-52 23-52 52 0 29 23 52 52 52 29 0 52-23 52-52 0-29-23-52-52-52z m0 71c-10 0-19-8-19-19s9-19 19-19c11 0 19 8 19 19s-8 19-19 19z m0 0m-160-71c-29 0-53 24-53 52 0 29 24 53 53 53 28 0 52-24 52-53 0-28-24-52-52-52z m0 72c-11 0-20-9-20-20 0-10 9-19 20-19 10 0 19 9 19 19 0 11-9 20-19 20z m0 0m321-73c-29 0-53 24-53 52 0 29 24 53 53 53 28 0 52-24 52-53 0-28-24-52-52-52z m0 72c-11 0-20-9-20-20s9-19 20-19c10 0 19 9 19 19s-9 20-19 20z m0 0" horiz-adv-x="1000" />

<glyph glyph-name="search" unicode="&#xe812;" d="M986-9l-239 247c-18 18-39 25-48 16-10-9-31-2-48 16l-4 3c107 141 97 343-32 472-140 140-368 140-508 0-141-141-141-368 0-509 131-131 337-139 478-26l2-2c17-18 23-39 14-48-9-9-3-31 14-49l240-247c17-18 45-19 63-1l67 64c18 18 18 46 1 64z m-450 324c-96-96-254-96-350 0-97 97-97 254 0 351 96 96 254 96 350 0 97-97 97-254 0-351z" horiz-adv-x="1000" />

<glyph glyph-name="link" unicode="&#xe814;" d="M415 88l-118-118c-49-49-128-49-177 0-49 49-49 128 0 177l236 235c49 49 128 49 176 0 17-16 43-16 59 0 17 17 17 43 0 59-81 82-213 82-294 0l-236-235c-81-82-81-214 0-295 81-81 213-81 295 0l118 118c16 16 16 43 0 59s-43 16-59 0z m524 701c-81 81-213 81-295 0l-141-141c-16-17-16-43 0-59 16-17 43-17 59 0l141 141c49 49 128 49 177 0 49-49 49-128 0-177l-259-259c-49-49-128-49-177 0-16 16-43 16-59 0s-16-43 0-59c82-81 213-81 295 0l259 259c81 82 81 214 0 295z" horiz-adv-x="1000" />

<glyph glyph-name="mobile" unicode="&#xe815;" d="M980 458h-96v224c0 11-10 20-21 20h-843c-11 0-20-9-20-20v-565c0-11 9-21 20-21h349v-57h-47c-11 0-20-9-20-21 0-11 9-20 20-20h253c11 0 20 9 20 20 0 12-9 21-20 21h-47v57h118v-78c0-11 9-20 20-20h314c11 0 20 9 20 20v420c0 11-9 20-20 20z m-21-321h-273v280h273v-280z m-116 524v-203h-177c-11 0-20-9-20-20v-143h-605v366h802z m-355-622h-78v57h78v-57z m-447 98v117h605v-117h-605z m645-98v57h273v-57h-273z" horiz-adv-x="1000" />

<glyph glyph-name="telescope" unicode="&#xe817;" d="M999 644l-81 196c-4 8-13 12-21 9l-269-112c-8-3-12-12-9-20l3-5-439-182c-4-2-7-5-9-9-1-4-1-8 0-12l2-5-166-69c-8-3-12-13-9-21l49-116c1-4 4-7 8-9 2-1 4-1 6-1s4 0 6 1l167 69 2-5c3-6 8-10 15-10 2 0 4 0 6 1l394 164c8 3 12 12 9 20-4 8-13 12-21 9l-380-157-52 126 424 176 67-161c1-4 4-7 8-9 2-1 4-1 6-1s4 0 6 1l59 24c0 1 210 87 210 87 4 2 7 5 9 9 1 4 1 8 0 12z m-774-257l-152-62-36 87 152 62 36-87z m499 161l-67 161c0 0-2 5-2 5l29 12 69-166-29-12z m59 24l-69 167 180 74 69-166-180-75z m-182-403h0c9 0 16 7 16 16s-7 16-16 16h-9l-14 52c-2 7-9 12-16 12h-46v116l52 22c9 3 12 13 9 21-3 8-13 12-21 8l-62-25c0 0 0 0 0 0l-62-26c-8-4-12-13-9-21 3-6 9-10 15-10 2 0 4 0 6 1l40 17v-103h-46c-7 0-14-5-16-12l-14-52h-9c-9 0-16-7-16-16s7-16 16-16h0l-83-299c-2-8 3-17 11-19 9-3 17 2 20 11l85 307h52v-303c0-9 7-16 16-16s16 7 16 16v303h52l85-307c2-7 9-12 16-12 1 0 3 0 4 1 8 2 13 11 11 19l-83 299z m-160 32l9 32h100l9-32h-118z" horiz-adv-x="1000" />

<glyph glyph-name="glass" unicode="&#xe818;" d="M680-51c-1 1-1 1-2 1l-119 44v238c234 66 280 382 190 605-3 8-10 13-18 13h-462c-8 0-15-5-18-13-90-223-44-539 190-605v-238l-117-43c0 0 0 0-1 0-52-23-36-100 21-101h312c20 0 38 11 47 29 13 24 2 58-23 70z m-12-53c-2-4-7-7-12-7h-312c-14 0-19 20-6 26l130 47c7 3 13 11 13 19v267c0 10-7 18-17 19-59 11-114 50-154 109-83 120-77 297-27 435h434c50-138 56-315-27-435-40-59-95-98-154-109-10-1-16-9-16-19v-267c0-8 5-16 12-18l131-49c3-2 5-4 6-7 1-4 1-7-1-11z m-3 518c31 52 50 122 50 186 0 6-3 12-8 16-5 4-11 5-17 3-81-22-135-5-187 11-59 19-120 38-208-13-6-3-10-10-10-17 0-64 19-134 50-186 77-135 253-135 330 0z m-165-62c-67 0-109 45-131 83-26 43-43 100-45 154 68 35 112 21 168 4 49-15 104-33 183-17-9-96-57-221-175-224z" horiz-adv-x="1000" />

<glyph glyph-name="antenna" unicode="&#xe819;" d="M862 843l0 0c-6 8-16 9-24 4-8-6-9-16-4-24 102-142 102-334 0-476-5-8-4-18 4-24 0 0 0 0 0 0 8-5 18-4 24 4 110 154 110 362 0 516z m-700 4c0 0 0 0 0 0-8 5-18 4-24-4-110-154-110-362 0-516 6-7 17-9 24-4 8 6 9 16 4 24-102 142-102 334 0 476 6 8 4 18-4 24z m109-84c6 8 4 18-3 24 0 0 0 0 0 0-8 6-18 4-24-3-91-117-91-281 0-398 6-7 16-9 24-3s9 17 3 24c-82 105-82 251 0 356z m461 24c0 0 0 0 0 0-7-6-8-16-3-24 82-104 82-251 0-356-5-7-4-18 3-24s19-4 24 3c92 117 92 281 0 398-5 8-16 9-24 3z m-108-85c62-66 62-168 0-234-6-7-6-18 1-24 0 0 0 0 0 0 7-7 18-6 24 1 0 0 0 0 0 0 75 79 75 202 0 280-6 7-17 8-24 1-7-6-7-17-1-24 0 0 0 0 0 0z m-261-263c10 0 17 8 17 17 0 5-1 9-4 12-62 66-62 168 0 234 6 7 6 18-1 24-7 7-18 6-24 0 0 0 0-1 0-1-75-78-75-201 0-280 3-4 7-6 12-6z m359-568l-167 649c36 31 41 85 10 121-30 36-84 40-120 10-36-31-41-85-10-121 3-3 6-7 10-10l-167-649c-2-9 4-18 13-21 0 0 0 0 0 0 1 0 2 0 4 0 8 0 15 5 16 13l6 22c1 0 2 1 3 1l319 168 50-191c2-8 8-13 16-13 2 0 3 0 4 0 10 3 15 12 13 21 0 0 0 0 0 0z m-165 505l-93 82 12 46c8-3 16-4 24-4 8 0 16 1 24 4l33-128z m-57 260c28 0 51-23 51-51s-23-51-51-51-51 23-51 51 23 51 51 51z m-46-215l103-91-152-101 49 192z m-125-492l61 240 208-98-269-142z m86 266l161 107 53-207-214 100z" horiz-adv-x="1000" />

<glyph glyph-name="document" unicode="&#xe81a;" d="M333 133h-33c-9 0-17-7-17-16s8-17 17-17h33c10 0 17 8 17 17s-7 16-17 16z m467 0h-400c-9 0-17-7-17-16s8-17 17-17h400c9 0 17 8 17 17s-8 16-17 16z m-467 100h-33c-9 0-17-7-17-16s8-17 17-17h33c10 0 17 8 17 17s-7 16-17 16z m467 0h-400c-9 0-17-7-17-16s8-17 17-17h400c9 0 17 8 17 17s-8 16-17 16z m-467 100h-33c-9 0-17-7-17-16s8-17 17-17h33c10 0 17 8 17 17s-7 16-17 16z m467 0h-400c-9 0-17-7-17-16s8-17 17-17h400c9 0 17 8 17 17s-8 16-17 16z m-467 100h-33c-9 0-17-7-17-16s8-17 17-17h33c10 0 17 8 17 17s-7 16-17 16z m467 0h-400c-9 0-17-7-17-16s8-17 17-17h400c9 0 17 8 17 17s-8 16-17 16z m-467 100h-33c-9 0-17-7-17-16s8-17 17-17h33c10 0 17 8 17 17s-7 16-17 16z m467 0h-400c-9 0-17-7-17-16s8-17 17-17h400c9 0 17 8 17 17s-8 16-17 16z m117 68c-1 2-1 3-1 4-1 1-1 1-1 2-1 2-2 3-3 5l-234 233c-1 2-3 3-4 3-1 1-1 1-2 1-1 1-3 1-4 1-1 0-1 0-1 0h-467c-9 0-17-7-17-17v-50h-83c-9 0-17-7-17-16v-900c0-10 8-17 17-17h700c9 0 17 7 17 17v83h83c9 0 17 7 17 17v633c0 0 0 1 0 1z m-234 192l177-176h-177v176z m100-910h-666v867h66v-783c0-10 8-17 17-17h583v-67z m100 100h-666v834h433v-217c0-9 8-17 17-17h216v-600z m-483 717h-100c-9 0-17-7-17-17v-100c0-9 8-16 17-16h100c9 0 17 7 17 16v100c0 10-8 17-17 17z m-17-100h-66v67h66v-67z" horiz-adv-x="1000" />

<glyph glyph-name="twitter" unicode="&#xf099;" d="M904 622q-37-54-90-93 0-8 0-23 0-73-21-145t-64-139-103-117-144-82-181-30q-151 0-276 81 19-2 43-2 126 0 224 77-59 1-105 36t-64 89q19-3 34-3 24 0 48 6-63 13-104 62t-41 115v2q38-21 82-23-37 25-59 64t-22 86q0 49 25 91 68-83 164-133t208-55q-5 21-5 41 0 75 53 127t127 53q79 0 132-57 61 12 115 44-21-64-80-100 52 6 104 28z" horiz-adv-x="928.6" />

<glyph glyph-name="right" unicode="&#xf178;" d="M964 352q0-8-5-14l-215-197q-8-8-19-4-11 5-11 17v125h-696q-8 0-13 5t-5 12v108q0 7 5 12t13 5h696v125q0 12 11 17t19-3l215-195q5-6 5-13z" horiz-adv-x="1000" />

<glyph glyph-name="dribbble" unicode="&#xf17d;" d="M571 13q-23 134-78 278h-1l-1-1q-9-3-24-9t-56-27-77-46-73-64-57-82l-9 6q103-84 234-84 73 0 142 29z m-103 339q-11 27-29 62-174-52-376-52 0-4 0-12 0-69 24-132t69-112q28 49 69 93t80 69 73 45 55 27l21 7q2 1 7 2t7 3z m-59 118q-67 119-137 211-77-36-130-104t-72-152q169 0 339 45z m381-178q-117 33-228 16 49-133 71-262 62 42 104 106t53 140z m-449 414q-1 0-1-1 0 1 1 1z m329-81q-103 91-241 91-43 0-87-10 73-95 137-214 39 15 73 34t54 34 36 32 21 23z m125-271q-2 129-83 229l-1-1q-5-7-11-13t-24-25-40-34-55-36-74-36q14-30 25-53 1-3 3-10t5-9q20 2 41 4t41 1 39-1 35-2 32-3 27-4 20-3 14-3z m62-4q0-117-57-215t-156-156-215-58-216 58-155 156-58 215 58 215 155 156 216 58 215-58 156-156 57-215z" horiz-adv-x="857.1" />

<glyph glyph-name="gplus" unicode="&#xf30f;" d="M48 572q0 58 25 102t56 65 69 34 56 15 26 2l230 0 0-4q0-22-78-36-28 0-38-6 40-20 54-56t14-96q0-102-68-158-38-38-38-54 0-18 50-64 104-90 104-178 0-140-116-194-68-34-150-34l-4 0-4 2q-2-2-4-2-24 0-54 5t-75 21-74 57-29 103q0 60 32 101t83 57 88 22 71 6l2 0q-16 22-24 47t-8 39l2 14-14 0q-64 0-110 30-74 44-74 160z m370-452q-4 52-43 84t-103 32l-16 0q-64-2-114-46-46-42-42-94t53-80 119-24q68 4 109 40t37 88z m-60 500q-30 108-122 108-12 0-20-2-40-12-58-62-16-50-2-106 14-52 47-85t71-33q12 0 18 2 42 12 63 65t3 113z m388-174l150 0 0-94-150 0 0-150-94 0 0 150-150 0 0 94 150 0 0 150 94 0 0-150z" horiz-adv-x="896" />

<glyph glyph-name="behance" unicode="&#xf34e;" d="M404 386q56 0 85-40t31-80l0-40q0-56-20-96t-50-58-59-27-49-11l-342 0 0 646 322 0q78 0 127-44t49-128q0-50-23-81t-47-37z m-262 180l0-144 170 0q26 0 40 15t14 61q0 30-11 47t-23 19l-10 2-180 0z m172-416q74 0 74 84 0 40-16 62t-32 24l-18 2-180 0 0-172 172 0z m468 366q70 0 118-29t67-70 27-82 6-69l-2-30-320 0q0-54 27-82t55-28l26-2q46 0 71 17t27 33l2 18 108 0q0-82-53-124t-105-44l-54-2q-72 0-122 25t-72 62-33 73-11 60l0 26q0 10 1 27t14 60 36 75 72 59 115 27z m98-194q0 4-1 11t-6 24-13 30-28 24-46 11q-42 0-70-25t-34-51l-6-24 204 0z m26 320l0-78-256 0 0 78 256 0z" horiz-adv-x="1000" />
</font>
</defs>
</svg>
